<svg width="1200" height="720" viewBox="0 0 1200 720" fill="none" xmlns="http://www.w3.org/2000/svg">
  <defs>
    <linearGradient id="bg" x1="0" y1="0" x2="1200" y2="720" gradientUnits="userSpaceOnUse">
      <stop stop-color="#0B1220"/>
      <stop offset="0.55" stop-color="#0A2E6A"/>
      <stop offset="1" stop-color="#1D4ED8"/>
    </linearGradient>
    <radialGradient id="glow" cx="0" cy="0" r="1" gradientUnits="userSpaceOnUse" gradientTransform="translate(900 170) rotate(140) scale(560 460)">
      <stop stop-color="#93C5FD" stop-opacity="0.35"/>
      <stop offset="1" stop-color="#93C5FD" stop-opacity="0"/>
    </radialGradient>
    <linearGradient id="glass" x1="160" y1="130" x2="1060" y2="600" gradientUnits="userSpaceOnUse">
      <stop stop-color="#FFFFFF" stop-opacity="0.12"/>
      <stop offset="1" stop-color="#FFFFFF" stop-opacity="0.04"/>
    </linearGradient>
  </defs>
  <rect width="1200" height="720" fill="url(#bg)"/>
  <rect width="1200" height="720" fill="url(#glow)"/>
  <rect x="150" y="120" width="900" height="480" rx="44" fill="url(#glass)" stroke="white" stroke-opacity="0.12" stroke-width="2"/>
  <g opacity="0.9">
    <path d="M420 380L600 240L780 380V540C780 562 762 580 740 580H460C438 580 420 562 420 540V380Z" stroke="white" stroke-opacity="0.82" stroke-width="12" stroke-linejoin="round"/>
    <path d="M520 580V450C520 432 534 418 552 418H648C666 418 680 432 680 450V580" stroke="#60A5FA" stroke-width="12" stroke-linecap="round"/>
    <path d="M570 500H630" stroke="#60A5FA" stroke-width="12" stroke-linecap="round"/>
  </g>
  <g opacity="0.35">
    <path d="M230 520C380 420 520 420 640 350C780 295 920 270 1070 210" stroke="white" stroke-opacity="0.16" stroke-width="5"/>
    <path d="M210 585C390 460 520 500 690 390C870 270 980 265 1090 220" stroke="white" stroke-opacity="0.12" stroke-width="4"/>
  </g>
</svg>

