<svg width="1200" height="720" viewBox="0 0 1200 720" fill="none" xmlns="http://www.w3.org/2000/svg">
  <defs>
    <linearGradient id="bg" x1="0" y1="0" x2="1200" y2="720" gradientUnits="userSpaceOnUse">
      <stop stop-color="#071323"/>
      <stop offset="0.55" stop-color="#0B3B7A"/>
      <stop offset="1" stop-color="#38BDF8"/>
    </linearGradient>
    <radialGradient id="glow" cx="0" cy="0" r="1" gradientUnits="userSpaceOnUse" gradientTransform="translate(330 160) rotate(35) scale(560 460)">
      <stop stop-color="#93C5FD" stop-opacity="0.38"/>
      <stop offset="1" stop-color="#93C5FD" stop-opacity="0"/>
    </radialGradient>
    <linearGradient id="glass" x1="160" y1="130" x2="1060" y2="600" gradientUnits="userSpaceOnUse">
      <stop stop-color="#FFFFFF" stop-opacity="0.12"/>
      <stop offset="1" stop-color="#FFFFFF" stop-opacity="0.04"/>
    </linearGradient>
  </defs>
  <rect width="1200" height="720" fill="url(#bg)"/>
  <rect width="1200" height="720" fill="url(#glow)"/>
  <rect x="150" y="120" width="900" height="480" rx="44" fill="url(#glass)" stroke="white" stroke-opacity="0.12" stroke-width="2"/>
  <g opacity="0.9">
    <path d="M820 250L500 410" stroke="white" stroke-opacity="0.75" stroke-width="12" stroke-linecap="round"/>
    <path d="M820 250L660 470" stroke="white" stroke-opacity="0.55" stroke-width="12" stroke-linecap="round"/>
    <path d="M820 250L570 300" stroke="#38BDF8" stroke-width="10" stroke-linecap="round"/>
    <path d="M500 410L610 390L660 470L640 350L820 250L640 290L500 410Z" fill="#0B1220" fill-opacity="0.35" stroke="#93C5FD" stroke-opacity="0.9" stroke-width="8" stroke-linejoin="round"/>
  </g>
  <g opacity="0.35">
    <circle cx="370" cy="440" r="92" fill="white" fill-opacity="0.06"/>
    <path d="M300 440C300 402 332 370 370 370C408 370 440 402 440 440C440 478 408 510 370 510C332 510 300 478 300 440Z" stroke="white" stroke-opacity="0.4" stroke-width="8"/>
    <path d="M370 362V518" stroke="white" stroke-opacity="0.18" stroke-width="6"/>
    <path d="M292 440H448" stroke="white" stroke-opacity="0.18" stroke-width="6"/>
  </g>
</svg>

